<svg width="200" height="30" viewBox="0 0 200 30" fill="none" xmlns="http://www.w3.org/2000/svg">
<g clip-path="url(#clip0_1075_3617)">
<path d="M194.202 4.02161V19.5331L184.309 4.02161H176.659V28.9247H182.53V12.5608L192.739 28.9247H199.997V4.02161H194.202ZM153.646 16.4731C153.648 15.0908 154.06 13.7401 154.83 12.5918C155.599 11.4434 156.692 10.5489 157.97 10.021C159.247 9.49312 160.653 9.35563 162.008 9.62588C163.364 9.89612 164.609 10.562 165.587 11.5394C166.564 12.5168 167.23 13.762 167.501 15.1176C167.771 16.4733 167.634 17.8787 167.106 19.1564C166.579 20.4341 165.684 21.5268 164.536 22.2966C163.388 23.0663 162.037 23.4786 160.655 23.4814C159.731 23.4926 158.815 23.3191 157.959 22.9709C157.104 22.6227 156.327 22.1069 155.674 21.4539C155.021 20.8008 154.505 20.0238 154.156 19.1684C153.808 18.313 153.634 17.3966 153.646 16.4731ZM147.706 16.4731C147.706 19.9075 149.07 23.2012 151.498 25.6296C153.927 28.058 157.22 29.4223 160.655 29.4223C164.089 29.4223 167.383 28.058 169.811 25.6296C172.24 23.2012 173.604 19.9075 173.604 16.4731C173.604 13.0388 172.24 9.74512 169.811 7.31668C167.383 4.88823 164.089 3.52395 160.655 3.52395C157.22 3.52395 153.927 4.88823 151.498 7.31668C149.07 9.74512 147.706 13.0388 147.706 16.4731ZM136.607 9.10915C137.408 9.09459 138.183 9.39646 138.763 9.94928C139.343 10.5021 139.681 11.2613 139.705 12.0621C139.705 13.4492 138.852 15.0861 135.934 15.0861H132.8V9.10915H136.607ZM140.022 28.9247H147.1L141.479 19.1063C142.834 18.4515 143.975 17.4248 144.769 16.1461C145.562 14.8673 145.976 13.3893 145.962 11.8843C145.962 7.93595 142.582 4.02261 137.068 4.02261H126.681V28.9257H132.8V20.1726H135.574L140.022 28.9247ZM104.838 4.02161V9.10915H111.455V28.9247H117.68V9.10915H124.724V4.02161H104.838ZM91.178 3.52195H91.6377C93.3434 3.50403 95.0356 3.82679 96.615 4.4713C98.1944 5.11582 99.6293 6.06912 100.835 7.27534C102.042 8.48155 102.995 9.91641 103.64 11.4958C104.284 13.0752 104.607 14.7674 104.589 16.4731C104.589 19.9075 103.225 23.2012 100.796 25.6296C98.3677 28.058 95.074 29.4223 91.6397 29.4223C88.2053 29.4223 84.9117 28.058 82.4832 25.6296C80.0548 23.2012 78.6905 19.9075 78.6905 16.4731C78.6894 15.8195 78.7247 15.1662 78.7964 14.5165L84.6305 16.2953V16.4731C84.6203 17.8265 85.0029 19.1537 85.7319 20.2939C86.461 21.4341 87.5051 22.3384 88.7378 22.8971C89.9705 23.4558 91.3387 23.6449 92.6767 23.4415C94.0147 23.2381 95.265 22.651 96.276 21.7513C97.287 20.8515 98.0153 19.6779 98.3726 18.3725C98.7299 17.0672 98.7008 15.6862 98.289 14.397C97.8771 13.1078 97.1002 11.9658 96.0523 11.1093C95.0044 10.2529 93.7305 9.71881 92.3852 9.57183L91.178 3.52195ZM69.2999 23.8371V4.02161H63.0381V28.9247H78.5466V23.8381L69.2999 23.8371ZM50.6935 9.10915C52.5433 9.10915 53.5036 10.1764 53.5036 11.5285C53.5036 12.8806 52.3294 13.9119 50.4797 13.9119H46.8521V9.10915H50.6935ZM50.6935 19.0024C52.4723 19.0024 53.8594 20.0697 53.8594 21.4218C53.8594 22.7739 52.5433 23.8411 50.6935 23.8411H46.8521V18.9994L50.6935 19.0024ZM40.7323 28.9247H50.6935C55.9579 28.9247 60.1561 25.9007 60.1561 22.0234C60.1561 18.8255 58.0925 16.9008 55.4243 16.1174C56.6843 15.7453 57.7829 14.9609 58.5439 13.89C59.305 12.8191 59.6844 11.5237 59.6215 10.2114C59.6215 6.40499 56.5236 4.02161 50.6925 4.02161H40.7323V28.9247ZM25.8984 10.6371L28.8864 19.2822H22.9094L25.8984 10.6371ZM29.38 4.02161H22.5187L13.163 28.9247H19.5667L21.1326 24.3718H30.6262L32.2251 28.9247H39.1264L29.38 4.02161ZM0 28.9247C1.36325 29.1637 2.7433 29.2944 4.12719 29.3154C10.3879 29.3154 12.7363 25.8288 12.7363 20.3155V4.02161H6.58152V18.8215C6.58152 22.8768 4.90966 23.8731 2.95299 23.8731C2.07715 23.8723 1.20465 23.765 0.354759 23.5533L0 28.9247Z" fill="#000713"/>
<path d="M91.7845 16.615L88.4388 0.5C85.5651 1.04944 82.8963 2.37387 80.7207 4.33013C78.5452 6.28639 76.9457 8.80007 76.0952 11.5995L91.7845 16.615Z" fill="#FFCF00"/>
</g>
<defs>
<clipPath id="clip0_1075_3617">
<rect width="200" height="28.9223" fill="white" transform="translate(0 0.5)"/>
</clipPath>
</defs>
</svg>
